# xmcd
#
# Track frame offsets:
#	150
#	13756
#	22184
#	38641
#	48507
#	64674
#	79493
#	93595
#	111844
#	125450
#	138958
#	150415
#	169311
#
# Disc length: 2437 seconds
#
# Revision: 0
# Processed by: cddbd v1.5.2PL0 Copyright (c) Steve Scherf et al.
# Submitted via: EasyCDDAExtractor 12.0.1.1
#
DISCID=ac09830d
DTITLE=Waylon Jennings
DYEAR=2000
DGENRE=Country
TTITLE0=A Good Hearted Woman
TTITLE1=Abilene
TTITLE2=Bob Wills Is Still the King
TTITLE3=Dukes of Hazard Theme Song
TTITLE4=Fallin' Out
TTITLE5=Luchenbach Texas
TTITLE6=Redneck Women
TTITLE7=A Couple More Years
TTITLE8=Good Hearted Woman
TTITLE9=Amanda
TTITLE10=Ladies Love Outlaws
TTITLE11=Outlaws Like Us
TTITLE12=Highwayman
EXTD=
EXTT0=
EXTT1=
EXTT2=
EXTT3=
EXTT4=
EXTT5=
EXTT6=
EXTT7=
EXTT8=
EXTT9=
EXTT10=
EXTT11=
EXTT12=
PLAYORDER=
